<svg xmlns="http://www.w3.org/2000/svg" width="1200" height="540" viewBox="0 0 1200 540" role="img" aria-label="Architecture diagram">
  <rect width="1200" height="540" fill="#07111F"/>
  <text x="50" y="64" fill="#F8FAFC" font-family="Arial, sans-serif" font-size="30" font-weight="700">Practice Exam Video Generator</text>
  <text x="52" y="96" fill="#94A3B8" font-family="Arial, sans-serif" font-size="16">n8n orchestrates. Together speaks. Remotion renders.</text>
  <defs><marker id="a" markerWidth="10" markerHeight="10" refX="8" refY="3" orient="auto"><path d="M0,0 L0,6 L9,3 z" fill="#F59E0B"/></marker><filter id="s"><feDropShadow dx="0" dy="10" stdDeviation="8" flood-color="#000" flood-opacity=".35"/></filter></defs>
  <rect x="55" y="230" width="150" height="95" rx="8" fill="#101827" stroke="#38BDF8" stroke-width="3" filter="url(#s)"/><text x="130" y="270" fill="#E0F2FE" font-family="Arial" font-size="18" font-weight="700" text-anchor="middle">questions.json</text><text x="130" y="298" fill="#E0F2FE" font-family="Arial" font-size="16" text-anchor="middle">40 items</text>
  <polygon points="345,205 435,277 345,350 255,277" fill="#EA4B71" stroke="#FB7185" stroke-width="3" filter="url(#s)"/><text x="345" y="288" fill="#fff" font-family="Arial" font-size="30" font-weight="700" text-anchor="middle">n8n</text>
  <path d="M520 215c-35 0-55-21-42-45 11-21 37-22 54-10 18-31 70-29 88 4 36-5 70 14 68 44-2 25-27 40-58 40H520z" fill="#172554" stroke="#60A5FA" stroke-width="3" filter="url(#s)"/><text x="584" y="200" fill="#DBEAFE" font-family="Arial" font-size="19" font-weight="700" text-anchor="middle">Together AI</text><text x="584" y="228" fill="#DBEAFE" font-family="Arial" font-size="17" text-anchor="middle">TTS</text>
  <rect x="520" y="292" width="190" height="120" rx="8" fill="#151D2F" stroke="#38BDF8" stroke-width="3" filter="url(#s)"/><text x="615" y="342" fill="#E0F2FE" font-family="Arial" font-size="22" font-weight="700" text-anchor="middle">Remotion</text><text x="615" y="372" fill="#E0F2FE" font-family="Arial" font-size="19" text-anchor="middle">renderer</text>
  <path d="M805 320h70l22-22h125v115H805z" fill="#241B35" stroke="#F59E0B" stroke-width="3" filter="url(#s)"/><text x="915" y="372" fill="#FEF3C7" font-family="Arial" font-size="21" font-weight="700" text-anchor="middle">MP4 + metadata</text>
  <rect x="1040" y="308" width="135" height="115" rx="8" fill="#1F293D" stroke="#FB7185" stroke-width="3" stroke-dasharray="9 7" filter="url(#s)"/><text x="1107" y="358" fill="#FFE4E6" font-family="Arial" font-size="20" font-weight="700" text-anchor="middle">YouTube</text><text x="1107" y="386" fill="#FFE4E6" font-family="Arial" font-size="16" text-anchor="middle">disabled</text>
  <line x1="205" y1="277" x2="255" y2="277" stroke="#38BDF8" stroke-width="4" marker-end="url(#a)"/><line x1="435" y1="250" x2="520" y2="220" stroke="#60A5FA" stroke-width="4" marker-end="url(#a)"/><line x1="435" y1="300" x2="520" y2="340" stroke="#F59E0B" stroke-width="4" marker-end="url(#a)"/><line x1="710" y1="355" x2="805" y2="355" stroke="#F59E0B" stroke-width="4" marker-end="url(#a)"/><line x1="1022" y1="365" x2="1040" y2="365" stroke="#FB7185" stroke-width="4" stroke-dasharray="9 7" marker-end="url(#a)"/>
</svg>
