<svg xmlns="http://www.w3.org/2000/svg" width="1200" height="540" viewBox="0 0 1200 540" role="img" aria-label="Manual render flow">
  <rect width="1200" height="540" fill="#07111F"/><text x="50" y="70" fill="#F8FAFC" font-family="Arial" font-size="30" font-weight="700">Manual Render Flow</text>
  <defs><marker id="a" markerWidth="10" markerHeight="10" refX="8" refY="3" orient="auto"><path d="M0,0 L0,6 L9,3 z" fill="#F59E0B"/></marker><filter id="s"><feDropShadow dx="0" dy="10" stdDeviation="8" flood-color="#000" flood-opacity=".35"/></filter></defs>
  <g font-family="Arial" font-size="19" font-weight="700" text-anchor="middle"><rect x="65" y="230" width="150" height="90" rx="8" fill="#101827" stroke="#38BDF8" stroke-width="3" filter="url(#s)"/><text x="140" y="282" fill="#E0F2FE">Manual trigger</text><rect x="285" y="230" width="150" height="90" rx="8" fill="#101827" stroke="#38BDF8" stroke-width="3" filter="url(#s)"/><text x="360" y="282" fill="#E0F2FE">Read JSON</text><rect x="505" y="230" width="170" height="90" rx="8" fill="#12313A" stroke="#22C55E" stroke-width="3" filter="url(#s)"/><text x="590" y="282" fill="#DCFCE7">Validate payload</text><rect x="760" y="230" width="150" height="90" rx="8" fill="#241B35" stroke="#F59E0B" stroke-width="3" filter="url(#s)"/><text x="835" y="282" fill="#FEF3C7">Render job</text><rect x="760" y="380" width="170" height="76" rx="38" fill="#1F293D" stroke="#F59E0B" stroke-width="3" filter="url(#s)"/><text x="845" y="425" fill="#FEF3C7">poll until done</text><rect x="995" y="230" width="150" height="90" rx="8" fill="#151D2F" stroke="#22C55E" stroke-width="3" filter="url(#s)"/><text x="1070" y="282" fill="#DCFCE7">Open MP4</text></g>
  <line x1="215" y1="275" x2="285" y2="275" stroke="#38BDF8" stroke-width="4" marker-end="url(#a)"/><line x1="435" y1="275" x2="505" y2="275" stroke="#38BDF8" stroke-width="4" marker-end="url(#a)"/><line x1="675" y1="275" x2="760" y2="275" stroke="#22C55E" stroke-width="4" marker-end="url(#a)"/><line x1="910" y1="275" x2="995" y2="275" stroke="#F59E0B" stroke-width="4" marker-end="url(#a)"/><path d="M835 320v60" stroke="#F59E0B" stroke-width="4" marker-end="url(#a)" fill="none"/><path d="M760 418c-80 0-90-125 0-145" stroke="#F59E0B" stroke-width="4" marker-end="url(#a)" fill="none"/>
</svg>
