<svg xmlns="http://www.w3.org/2000/svg" width="1200" height="540" viewBox="0 0 1200 540" role="img" aria-label="Quality gates">
  <rect width="1200" height="540" fill="#07111F"/><text x="50" y="70" fill="#F8FAFC" font-family="Arial" font-size="30" font-weight="700">Quality Gates</text>
  <defs><marker id="a" markerWidth="10" markerHeight="10" refX="8" refY="3" orient="auto"><path d="M0,0 L0,6 L9,3 z" fill="#22C55E"/></marker><filter id="s"><feDropShadow dx="0" dy="10" stdDeviation="8" flood-color="#000" flood-opacity=".35"/></filter></defs>
  <g font-family="Arial" font-size="20" font-weight="700" text-anchor="middle"><rect x="75" y="230" width="170" height="100" rx="8" fill="#101827" stroke="#F8FAFC" stroke-width="3" filter="url(#s)"/><text x="160" y="287" fill="#F8FAFC">Pull request</text><rect x="335" y="180" width="155" height="130" rx="8" fill="#12313A" stroke="#22C55E" stroke-width="3" filter="url(#s)"/><text x="412" y="225" fill="#DCFCE7">build</text><text x="412" y="257" fill="#DCFCE7">lint</text><text x="412" y="289" fill="#DCFCE7">test</text><rect x="335" y="360" width="185" height="88" rx="8" fill="#172554" stroke="#60A5FA" stroke-width="3" filter="url(#s)"/><text x="427" y="397" fill="#DBEAFE">coverage</text><text x="427" y="427" fill="#DBEAFE">100 / 100 / 90</text><rect x="625" y="180" width="175" height="130" rx="8" fill="#241B35" stroke="#F59E0B" stroke-width="3" filter="url(#s)"/><text x="712" y="225" fill="#FEF3C7">CodeQL</text><text x="712" y="257" fill="#FEF3C7">audit</text><text x="712" y="289" fill="#FEF3C7">Scorecard</text><rect x="625" y="360" width="175" height="110" rx="8" fill="#151D2F" stroke="#38BDF8" stroke-width="3" filter="url(#s)"/><text x="712" y="402" fill="#E0F2FE">Docker</text><text x="712" y="432" fill="#E0F2FE">Trivy</text><polygon points="985,235 1080,305 985,375 890,305" fill="#064E3B" stroke="#22C55E" stroke-width="3" filter="url(#s)"/><text x="985" y="313" fill="#DCFCE7" font-size="26">merge</text></g>
  <line x1="245" y1="280" x2="335" y2="245" stroke="#94A3B8" stroke-width="4" marker-end="url(#a)"/><line x1="412" y1="310" x2="427" y2="360" stroke="#60A5FA" stroke-width="4" marker-end="url(#a)"/><line x1="490" y1="245" x2="625" y2="245" stroke="#F59E0B" stroke-width="4" marker-end="url(#a)"/><line x1="520" y1="405" x2="625" y2="415" stroke="#38BDF8" stroke-width="4" marker-end="url(#a)"/><line x1="800" y1="245" x2="890" y2="290" stroke="#22C55E" stroke-width="4" marker-end="url(#a)"/><line x1="800" y1="415" x2="890" y2="325" stroke="#22C55E" stroke-width="4" marker-end="url(#a)"/>
</svg>
